<svg xmlns="http://www.w3.org/2000/svg" viewBox="0 0 636.87 212.29"><defs><style>.cls-1{fill:#fff200;}.cls-2{fill:#231f20;}.cls-3{fill:#f7941d;}.cls-4{fill:#262262;}</style></defs><title>لوجو</title><g id="Layer_1" data-name="Layer 1"><path class="cls-1" d="M220.26,110.38c1-.43,1.55-.93,1.69-1.5l.16-1.43a4.87,4.87,0,0,0,0-.65c0-.69-.12-1.14-.37-1.34a2.71,2.71,0,0,0-1.62-.32H208.08c-1.26,0-1.89.3-1.89.88v.34a3.41,3.41,0,0,1,.05.76c0,1.37.51,2.2,1.42,2.5,1.79.58,2.69,1.44,2.69,2.57a6.36,6.36,0,0,1,0,.77L204,137.35l-6.06-23.63a9,9,0,0,1-.43-2.27c0-.39.53-.78,1.58-1.18a3.15,3.15,0,0,0,1.33-.78,5.27,5.27,0,0,0,.29-2.33,3.08,3.08,0,0,0-.29-1.65c-.19-.24-.64-.37-1.34-.37H177.51c-1,0-1.52.37-1.52,1.11v2.56c0,.49.38,1,1.16,1.54a4.71,4.71,0,0,1,2,2.6l2.47,9.52-4.15,16-6.68-24.74a8.87,8.87,0,0,1-.32-2.09c0-.49.35-1,1-1.43a2.27,2.27,0,0,0,1-.91,7,7,0,0,0,.16-2,2.55,2.55,0,0,0-.42-1.78,2.17,2.17,0,0,0-1.48-.39H150c-1,0-1.48.29-1.48.85v2.82c0,.71.5,1.24,1.48,1.61a3.36,3.36,0,0,1,2.21,2.2L164.76,160a8.91,8.91,0,0,1,.21,1.06c.46,2.57,1.21,3.85,2.27,3.85h9.22a2.15,2.15,0,0,0,1.37-.35,3.9,3.9,0,0,0,.79-1.92l6.65-26.29L192,162.24c0,.14.07.35.11.62.24,1.39.84,2.09,1.79,2.09h8.85a2.2,2.2,0,0,0,1.74-.55,11.18,11.18,0,0,0,1.21-3.41l12.71-48.37A3.28,3.28,0,0,1,220.26,110.38Z"/><path class="cls-1" d="M281.37,134.79a2,2,0,0,0,.26-1.1,11.14,11.14,0,0,0-.07-1.17l-.59-4.91a2.59,2.59,0,0,0-.38-1.39,2.78,2.78,0,0,0-1.33-.19H254.09a4.25,4.25,0,0,0-2.06.3,1.65,1.65,0,0,0-.48,1.28l-.42,5.55c0,.29,0,.58,0,.86a1,1,0,0,0,.43,1,4.44,4.44,0,0,0,1.9.25,4.12,4.12,0,0,0,2.06-.34,2.61,2.61,0,0,0,.75-1.71,12.49,12.49,0,0,1,1-3.8,1.46,1.46,0,0,1,1.24-.71h1.56v31.1a1.27,1.27,0,0,1-.28.94,3.35,3.35,0,0,1-1.32.56,1.46,1.46,0,0,0-1.07,1.62c0,.75.08,1.2.25,1.36a1.87,1.87,0,0,0,1.16.24H273.9a3.1,3.1,0,0,0,1.41-.2c.21-.14.31-.61.31-1.42a2.28,2.28,0,0,0-.22-1.25,1.84,1.84,0,0,0-.91-.52c-1.1-.33-1.65-.93-1.65-1.81V128.7h1c.64,0,1.18.45,1.62,1.33a19,19,0,0,1,1.2,3.4c.2.84.47,1.34.8,1.5a6.42,6.42,0,0,0,2.25.24C280.65,135.17,281.2,135,281.37,134.79Z"/><path class="cls-1" d="M253.43,161.4a4.37,4.37,0,0,1-2-2.91l-5.63-26.21c-.14-.67-.28-1.34-.41-2a12.37,12.37,0,0,0-1-3.44,1.82,1.82,0,0,0-1.68-.79h-13.1c-.6,0-1,.11-1.1.32a3.68,3.68,0,0,0-.2,1.62,1.22,1.22,0,0,0,.68,1.26c1,.38,1.48.82,1.48,1.31a4.18,4.18,0,0,1-.17,1.12L224,159.73a2.66,2.66,0,0,1-1.3,1.57,2.46,2.46,0,0,0-1.2,2.12c0,.73.25,1.1.75,1.1h9c.39,0,.64-.07.74-.2a2.64,2.64,0,0,0,.15-1.18,2.28,2.28,0,0,0-.2-1.1,2.08,2.08,0,0,0-1.06-.64c-1.07-.4-1.6-.89-1.6-1.46a3.12,3.12,0,0,1,.29-1.24l.07-.21.4-2.2h8.55a23.38,23.38,0,0,1,.74,3.89c0,.54-.4,1-1.19,1.33a2.4,2.4,0,0,0-1,.67,3.63,3.63,0,0,0-.17,1.43c0,.61.23.91.68.91h15.24a1.34,1.34,0,0,0,1-.28,2.72,2.72,0,0,0,.24-1.49,1.75,1.75,0,0,0-.14-.94A2.51,2.51,0,0,0,253.43,161.4Zm-22.83-7.85,3.87-18.63,3.75,18.63Z"/><path class="cls-1" d="M344.32,126h-9.46a1.41,1.41,0,0,0-.79.16q-.21.15-.21.87a2.85,2.85,0,0,0,.29,1.54,2.63,2.63,0,0,0,1.29.7c1.12.32,1.68.86,1.68,1.63v13.72L325.58,126h-9.49c-.84,0-1.26.56-1.26,1.67a2,2,0,0,0,.28,1.27,2.65,2.65,0,0,0,1.14.62,2.09,2.09,0,0,1,1.22.84,3.45,3.45,0,0,1,.27,1.54v28.19c0,.46-.59.87-1.76,1.24-.61.17-.91.48-.91.93a5.51,5.51,0,0,0,.17,1.82c.11.25.4.37.85.37h9.1c.59,0,.93-.06,1-.19a7.88,7.88,0,0,0,.12-1.93c0-.56-.48-1-1.45-1.29-1.14-.35-1.71-.88-1.71-1.57V142.7l13.44,21.82h5.83V130.64a1.17,1.17,0,0,1,.31-.86,4,4,0,0,1,1.51-.65,1.28,1.28,0,0,0,.71-.4,2.55,2.55,0,0,0,.15-1.12C345.11,126.61,344.85,126.08,344.32,126Z"/><path class="cls-1" d="M312.29,161.4a4.39,4.39,0,0,1-2-2.91l-5.63-26.21c-.13-.67-.27-1.34-.41-2a12,12,0,0,0-1-3.44,1.82,1.82,0,0,0-1.68-.79h-13.1c-.59,0-1,.11-1.09.32a3.63,3.63,0,0,0-.21,1.62,1.21,1.21,0,0,0,.69,1.26c1,.38,1.48.82,1.48,1.31a4.62,4.62,0,0,1-.17,1.12l-6.35,28.07a2.69,2.69,0,0,1-1.31,1.57,2.46,2.46,0,0,0-1.2,2.12c0,.73.25,1.1.75,1.1h9a1,1,0,0,0,.74-.2,2.64,2.64,0,0,0,.15-1.18,2.15,2.15,0,0,0-.21-1.1,2,2,0,0,0-1-.64c-1.07-.4-1.61-.89-1.61-1.46a3.3,3.3,0,0,1,.29-1.24l.07-.21.4-2.2h8.55a22.74,22.74,0,0,1,.75,3.89c0,.54-.4,1-1.2,1.33a2.56,2.56,0,0,0-1,.67,3.63,3.63,0,0,0-.17,1.43c0,.61.23.91.69.91h15.23a1.35,1.35,0,0,0,1-.28,2.72,2.72,0,0,0,.24-1.49,1.86,1.86,0,0,0-.14-.94A2.76,2.76,0,0,0,312.29,161.4Zm-22.84-7.85,3.88-18.63,3.75,18.63Z"/><path class="cls-1" d="M422.93,155.24a4.15,4.15,0,0,0-2.16.41,4,4,0,0,0-1.2,1.72,17.1,17.1,0,0,1-2,3.77,3.16,3.16,0,0,1-2.31.66H413.4V145.37h2.67a1.79,1.79,0,0,1,1.12.29,3.56,3.56,0,0,1,.74,1.55,3.4,3.4,0,0,0,.77,1.68,2.77,2.77,0,0,0,1.56.3,5.37,5.37,0,0,0,2.12-.23,1.08,1.08,0,0,0,.35-1v-7.94c0-.7-.12-1.11-.36-1.21a15.37,15.37,0,0,0-3.07-.15,1,1,0,0,0-.81.33,7.63,7.63,0,0,0-.67,2,2.05,2.05,0,0,1-.68,1.24,2.71,2.71,0,0,1-1.41.28H413.4V129h2.32a2.32,2.32,0,0,1,1.72.83,13.55,13.55,0,0,1,1.82,3,3.1,3.1,0,0,0,1.21,1.49,6.66,6.66,0,0,0,2.49.3c1.1,0,1.65-.21,1.65-.64a2.92,2.92,0,0,0-.13-.65l-1.75-6.15a1.37,1.37,0,0,0-.59-.91,2.92,2.92,0,0,0-1.2-.19H399.06a2.31,2.31,0,0,0-1.2.18q-.21.18-.21,1.11a3.14,3.14,0,0,0,.19,1.38,2.49,2.49,0,0,0,1.22.6c1,.3,1.52.6,1.54.91v29.73c0,.64-.62,1.14-1.88,1.5-.82.26-1.24.66-1.24,1.22a3,3,0,0,0,.24,1.58c.16.19.53.28,1.1.28H421.7c.77,0,1.24-.1,1.39-.3a6.55,6.55,0,0,0,.56-1.78l1.27-5.41a3.81,3.81,0,0,0,.14-.83Q425.06,155.24,422.93,155.24Z"/><path class="cls-1" d="M457.61,132.52l-.58-4.91c-.1-.8-.22-1.26-.38-1.39a2.83,2.83,0,0,0-1.34-.19H430.14a4.25,4.25,0,0,0-2.06.3,1.72,1.72,0,0,0-.48,1.28l-.41,5.55a8.38,8.38,0,0,0,0,.86,1,1,0,0,0,.43,1,4.47,4.47,0,0,0,1.9.25,4.12,4.12,0,0,0,2.06-.34,2.66,2.66,0,0,0,.76-1.71,12.59,12.59,0,0,1,1-3.8,1.46,1.46,0,0,1,1.25-.71h1.55v31.1a1.32,1.32,0,0,1-.27.94,3.51,3.51,0,0,1-1.32.56,1.46,1.46,0,0,0-1.08,1.62c0,.75.08,1.2.26,1.36a1.82,1.82,0,0,0,1.15.24H450a3.17,3.17,0,0,0,1.41-.2c.2-.14.31-.61.31-1.42a2.26,2.26,0,0,0-.23-1.25,1.84,1.84,0,0,0-.91-.52c-1.09-.33-1.64-.93-1.64-1.81V128.7h1c.64,0,1.17.45,1.61,1.33a19,19,0,0,1,1.2,3.4c.2.84.47,1.34.8,1.5a6.46,6.46,0,0,0,2.25.24c.91,0,1.46-.13,1.63-.38a2,2,0,0,0,.26-1.1A11.14,11.14,0,0,0,457.61,132.52Z"/><path class="cls-1" d="M395.53,126h-8.48c-.46,0-.74.1-.84.28a3.48,3.48,0,0,0-.15,1.33V128l0,.33c0,.24.37.48,1.1.74,1.17.38,1.75.89,1.75,1.53a1.68,1.68,0,0,1-.07.5l-5.27,18.42-4.71-18.43a2,2,0,0,1-.11-.6c0-.73.51-1.26,1.51-1.59.44-.14.68-.32.72-.52.05-.9.07-1.36.07-1.37,0-.66-.26-1-.79-1H364.63c-.55,0-.83.26-.83.79v.33l0,.31a2.85,2.85,0,0,1,0,.49l0,.33a1,1,0,0,0,.15.65,3.22,3.22,0,0,0,.84.44,2.57,2.57,0,0,1,1.65,1.74l8.94,31.69a7,7,0,0,0,.69,1.86.85.85,0,0,0,.68.29h6.89c.44,0,.68-.09.72-.26l.55-1.89,8.93-31a6.66,6.66,0,0,1,.69-1.76,4,4,0,0,1,1.3-.82c.28-.11.44-.25.48-.43a7.19,7.19,0,0,0,.07-1.37,3.29,3.29,0,0,0-.12-1.17C396.15,126.11,395.92,126,395.53,126Z"/><path class="cls-1" d="M182.91,179.08a47.38,47.38,0,1,1,36.53-77.76l4.76-4.75a54.09,54.09,0,1,0-11.29,80.21l-3.16-5.95A47.54,47.54,0,0,1,182.91,179.08Z"/><path class="cls-1" d="M513.39,89.34H239.93a70.86,70.86,0,1,0-17.26,101.1l-4.91-7.28a62,62,0,1,1,19.51-81.84l276.12,0Z"/><path class="cls-1" d="M300.46,72.24c-.21,0-.7.46-1.47,1.37S297.75,75,297.58,75a3.82,3.82,0,0,1-1.17-.51l-1.25-.69c-.16,0-.68.53-1.55,1.58-.35.42-.84,1-1.46,1.83,0,.24.42.56,1.24,1a4.85,4.85,0,0,0,1.66.56c.38,0,.88-.39,1.52-1.17a7.84,7.84,0,0,1,1.06-1.19,13.45,13.45,0,0,1,2,1c.46,0,1.09-.47,1.88-1.41a4,4,0,0,0,1.19-2.11C302.71,73.4,302,72.87,300.46,72.24Z"/><path class="cls-1" d="M308.05,70.88c-.94.74-1.77,1.43-2.5,2.07a7.25,7.25,0,0,0,1.65,2.42,3.56,3.56,0,0,0,1.36-.77c.7-.51,1.05-.84,1.05-1a3.88,3.88,0,0,0-.76-1.38A5.18,5.18,0,0,1,308.05,70.88Z"/><path class="cls-1" d="M320.26,51.06a20.21,20.21,0,0,0-1,5.9,20.08,20.08,0,0,1-.69,6.18A4.48,4.48,0,0,1,314,66.46h-3.26c-1,0-1.52-.21-1.52-.64a6,6,0,0,1,.38-2.13c.36-1,.64-1.67.84-2.14l-.2-.15a10.06,10.06,0,0,0-1.79,2.34A8.69,8.69,0,0,1,306.7,66a3.87,3.87,0,0,1-2.2.44h-4.17c-1,0-1.53-.21-1.53-.64a6.21,6.21,0,0,1,.38-2.13c.37-1,.65-1.67.84-2.14l-.2-.15A10.07,10.07,0,0,0,298,63.74,8.69,8.69,0,0,1,296.31,66a3.83,3.83,0,0,1-2.19.44h-2.64a3.37,3.37,0,0,1-1.84-.49q2.87-3.37,2.86-5.82a1.69,1.69,0,0,0-1.95-1.88,5.35,5.35,0,0,0-3.25,1.52,32.4,32.4,0,0,0-2.64,2.63,24.15,24.15,0,0,0,.76-4.71l.49-4.89a6.06,6.06,0,0,1,.33-1.14,4.92,4.92,0,0,0,.29-1,.42.42,0,0,0-.4-.44,2.47,2.47,0,0,0-.67,1c-.28.59-.55,1.19-.82,1.8a9.81,9.81,0,0,0-1,2.57c-.23,3.12-.39,5.45-.47,7-.29,2.57-.87,3.86-1.74,3.86h-1.8a10.2,10.2,0,0,0-4.5,1.09A14.87,14.87,0,0,0,271,70.83l-3.53,4a41.75,41.75,0,0,1-6.19,5.4q-3.76,2.43-5.68,3.53a10.3,10.3,0,0,0-1.35.84c.08.18.19.27.31.27a10,10,0,0,0,1.71-.38A19.44,19.44,0,0,0,262.11,82a40.78,40.78,0,0,0,6.23-5.47c.92-1,1.84-1.93,2.75-2.9a11.86,11.86,0,0,1,3.2-2.32,13.31,13.31,0,0,1,5.3-.85h1.17a11.2,11.2,0,0,0,4.25-.71,27.72,27.72,0,0,0,7,.71h.78v0a6.78,6.78,0,0,0,4.72-1.9A3.42,3.42,0,0,0,299.67,70a8.54,8.54,0,0,0,2.72.46h1.05v0a6.73,6.73,0,0,0,4.44-1.88A3.47,3.47,0,0,0,310.07,70a8.94,8.94,0,0,0,2.69.46H314c1.35,0,2.72-1.13,4.1-3.37a23.4,23.4,0,0,0,3.06-10.13c.22-2.5.38-4.38.49-5.62a20.64,20.64,0,0,1,.66-3.75l-.22-.18A9.88,9.88,0,0,0,320.26,51.06ZM287.82,64.39A6.77,6.77,0,0,1,284,65.73a1.68,1.68,0,0,1-.49-.1q3.63-4.09,4.74-4.1c.91,0,1.37.32,1.37,1C289.61,62.94,289,63.57,287.82,64.39Z"/><path class="cls-1" d="M255.9,75.32q.86-1,1-1a11.8,11.8,0,0,1,1.78.89c.42,0,1-.43,1.7-1.28A3.68,3.68,0,0,0,261.44,72c0-.25-.67-.73-2-1.43-.18,0-.62.41-1.31,1.24S257,73,256.82,73a9,9,0,0,1-2.19-1.09c-.18,0-.63.45-1.35,1.33,0,0-.47.63-1.32,1.73q0,.35,1.11.87a4,4,0,0,0,1.47.51C254.87,76.37,255.32,76,255.9,75.32Z"/><path class="cls-1" d="M253.74,70.43v-.19a7,7,0,0,0,1.84-1.48,12.3,12.3,0,0,0,2.85-5A52.07,52.07,0,0,0,260,58.12a1.09,1.09,0,0,0-.14-.54,15.74,15.74,0,0,0-1.94,2.63,8.87,8.87,0,0,0-1.32,2.9c-.21,1.37-.33,2.17-.37,2.39a3.11,3.11,0,0,1-2.58,1h-.55a7.45,7.45,0,0,1-2.62-1.18q-3.42,0-6.55,6.56a5.28,5.28,0,0,0-.51,1.65c0,.18.06.27.23.27s.45-.19.66-.56l.47-.91q1.78-2.81,3.41-2.8a4.23,4.23,0,0,1,1.76.36,8.1,8.1,0,0,0,1.31.47,12.37,12.37,0,0,0,1.79.11Z"/><path class="cls-1" d="M245.38,64.59c.4,0,.9-.39,1.51-1.18s1-1.17,1.11-1.17a13.66,13.66,0,0,1,2,1c.46,0,1.09-.47,1.88-1.41a4.09,4.09,0,0,0,1.2-2.12q0-.53-2.28-1.59c-.22,0-.71.46-1.48,1.38s-1.23,1.39-1.36,1.39a3.79,3.79,0,0,1-1.28-.61,5.74,5.74,0,0,0-1.16-.61c-.22,0-1.22,1.14-3,3.4,0,.23.41.55,1.23,1A4.66,4.66,0,0,0,245.38,64.59Z"/><path class="cls-1" d="M326.61,50.44A40.33,40.33,0,0,0,325.52,55q-.93,10.61-1.47,16h.09A13.49,13.49,0,0,0,325.52,68a21.3,21.3,0,0,0,1.28-5l.75-7.83c.47-4.8.71-8,.71-9.77l-.24.11Q327.51,47.15,326.61,50.44Z"/><path class="cls-1" d="M426.2,58.65a6.21,6.21,0,0,0,2.38.94q1.62,0,3.3-2.73.27-.4,2.1-4.14c0-.55-.75-1.28-2.27-2.2a7.86,7.86,0,0,0-3.2-1.39q-.87,0-3,3.44c-1.4,2.28-2.1,3.8-2.1,4.54.08.23.14.43.19.6A6.07,6.07,0,0,1,426.2,58.65Z"/><path class="cls-1" d="M493,27.3q-2.55-2.37-4-2.37c-.85,0-2.2,1.69-4,5.06s-2.67,5.45-2.67,6.6q0,5.13,4.33,5.13a12.93,12.93,0,0,0,2.31-.3,13.13,13.13,0,0,1,2.32-.3c.52,0,.79.21.79.63q0,3.27-7.53,9.56Q481.85,53.52,477,57a28.29,28.29,0,0,0-4,3.11.91.91,0,0,0,.82.41c1,0,3.21-.64,6.63-1.91q5.71-2.15,8-4.08a19.37,19.37,0,0,0,3.5-3.68,31.88,31.88,0,0,0,3.28-8.65,28,28,0,0,0,.85-7.12A10.18,10.18,0,0,0,493,27.3Z"/><path class="cls-1" d="M480,35.5a14.74,14.74,0,0,0,1.43-4.95c0-2.59-1.35-3.89-4-3.89-2,0-4.2,1-6.72,3.13q-1.69,1.42-5.47,5.45c.48-1.1,1-4.34,1.58-9.74l1-10.11a14.86,14.86,0,0,1,.67-2.36,9.67,9.67,0,0,0,.61-2,.87.87,0,0,0-.83-.9,4.93,4.93,0,0,0-1.39,2c-.57,1.23-1.14,2.46-1.69,3.71a20.08,20.08,0,0,0-2,5.32q-.72,9.66-1,14.5-.9,8-3.6,8h-4.1c-.65,0-1.63-.06-2.93-.17s-2.28-.17-2.94-.17-1.27,1.08-1.46,3.23a59.68,59.68,0,0,1-1.77,11,30.53,30.53,0,0,1-6.82,12.19q-5.42,5.73-12.3,5.73a16.11,16.11,0,0,1-9.34-2.55,9.33,9.33,0,0,1-4.29-8.24,22.47,22.47,0,0,1,.91-6.89L416,51.49a15.34,15.34,0,0,0,.68-2q0-1.08-.72-1.08c-.66,0-1.5.92-2.53,2.77A40.8,40.8,0,0,0,408,71.29a12.7,12.7,0,0,0,4,9.54,13.49,13.49,0,0,0,9.72,3.82q11.22,0,19.88-12.1A48.83,48.83,0,0,0,450.5,50a5.34,5.34,0,0,0,4.41,1.81H457v0c5.68-.1,10.35-1.4,14-4S477.63,41.12,480,35.5Zm-17.19,6.36q7.53-8.46,9.82-8.46c1.88,0,2.82.67,2.82,2q0,1.39-3.69,3.91a14,14,0,0,1-7.93,2.79A3.62,3.62,0,0,1,462.82,41.86Z"/><path class="cls-1" d="M381.87,53.86q1.83,0,3.3-3.78a14.06,14.06,0,0,0-.82-1.76,2.46,2.46,0,0,1,.73-1.3,2.69,2.69,0,0,0,.73-1.24q0-.45-.6-.45c-.42,0-1,.62-1.83,1.85a6.13,6.13,0,0,0-1.2,2.59c.32.66.56,1.19.71,1.58a1.83,1.83,0,0,1-.83,1.35c-.55.46-.82.74-.82.82S381.45,53.86,381.87,53.86Z"/><path class="cls-1" d="M374.1,57q-.5,0-2.82,4.53c1.08,1.45,1.64,2.21,1.67,2.28a4.93,4.93,0,0,1,.9,2.61c0,1.27-1.13,2.61-3.37,4l-5.12,2.72c.11.32.4.47.88.47a22.64,22.64,0,0,0,3.25-.83,12.85,12.85,0,0,0,3.28-1.23c1.18-1,2.35-3,3.49-6.2a10.22,10.22,0,0,0,.66-2.23A8.26,8.26,0,0,0,375,57.92Q374.28,57,374.1,57Z"/><path class="cls-1" d="M400.28,51.06a20.21,20.21,0,0,0-1,5.9,20.08,20.08,0,0,1-.69,6.18A4.49,4.49,0,0,1,394,66.46h-1.15q-3.11,0-3.11-4.71c0-.27,0-.61,0-1s0-.77,0-.92a33,33,0,0,1,.52-5q.72-4.24.84-5.27l-.25-.31a21.12,21.12,0,0,0-3,10.42q0,9-2.59,12a6.83,6.83,0,0,1-1.93,1.6c-.3.15-.93.41-1.89.76l1.2-4.12a22.34,22.34,0,0,0,.66-5.55,39.67,39.67,0,0,1,1.13-9.54.78.78,0,0,1-.08-.29l-.1-.11a22.34,22.34,0,0,0-2.77,6,22.87,22.87,0,0,0-.42,5.55,29.93,29.93,0,0,1-1.06,8.46l-1.09.26c-.47.12-.71.26-.71.4s.36.44,1.09.7a6,6,0,0,0,2,.39A6.18,6.18,0,0,0,387,73.07a16.9,16.9,0,0,0,1.66-3.68,7.31,7.31,0,0,0,4.1,1H394c1.35,0,2.71-1.13,4.1-3.37a23.4,23.4,0,0,0,3.06-10.13c.21-2.5.38-4.38.49-5.62a20.88,20.88,0,0,1,.65-3.75l-.22-.18A9.89,9.89,0,0,0,400.28,51.06Z"/><path class="cls-1" d="M341.86,64.59c.4,0,.9-.39,1.5-1.18s1-1.17,1.12-1.17a14,14,0,0,1,2,1q.69,0,1.89-1.41a4.13,4.13,0,0,0,1.19-2.12q0-.53-2.28-1.59c-.21,0-.71.46-1.48,1.38s-1.22,1.39-1.36,1.39a3.79,3.79,0,0,1-1.28-.61,5.47,5.47,0,0,0-1.16-.61c-.21,0-1.22,1.14-3,3.4,0,.23.41.55,1.24,1A4.6,4.6,0,0,0,341.86,64.59Z"/><path class="cls-1" d="M366.11,62.36a4.91,4.91,0,0,0-1.5-3.78,3.48,3.48,0,0,0-1.92-1.15c-.42,0-1.07.82-1.95,2.45a9,9,0,0,0-1.3,3.19c0,1.66.7,2.48,2.1,2.48a7,7,0,0,0,1.12-.14,6.06,6.06,0,0,1,1.12-.15c.25,0,.38.11.38.31q0,1.58-3.64,4.62c-.66.56-1.55,1.24-2.66,2.06a1.09,1.09,0,0,0,.06-.28c0-.25-.68-.73-2-1.43-.18,0-.62.41-1.31,1.24S353.46,73,353.29,73a9,9,0,0,1-2.18-1.09c-.19,0-.64.45-1.35,1.33L348.43,75q0,.35,1.11.87a4,4,0,0,0,1.47.51c.33,0,.78-.35,1.36-1.05a4.83,4.83,0,0,1,1-1,11.94,11.94,0,0,1,1.79.89,1.92,1.92,0,0,0,1.12-.66,23,23,0,0,0,2.28-.76,13.4,13.4,0,0,0,3.86-2,9.64,9.64,0,0,0,1.7-1.78,15.32,15.32,0,0,0,1.58-4.18A13.37,13.37,0,0,0,366.11,62.36Z"/><path class="cls-1" d="M350.21,70.43v-.19a6.83,6.83,0,0,0,1.84-1.48,12.3,12.3,0,0,0,2.85-5,53.73,53.73,0,0,0,1.58-5.62,1,1,0,0,0-.15-.54,16.31,16.31,0,0,0-1.94,2.63,8.87,8.87,0,0,0-1.32,2.9c-.2,1.37-.33,2.17-.36,2.39a3.12,3.12,0,0,1-2.59,1h-.54A7.39,7.39,0,0,1,347,65.28q-3.42,0-6.55,6.56a5.28,5.28,0,0,0-.51,1.65q0,.27.24.27c.23,0,.45-.19.65-.56l.48-.91q1.78-2.81,3.4-2.8a4.31,4.31,0,0,1,1.77.36,7.47,7.47,0,0,0,1.31.47,12.12,12.12,0,0,0,1.78.11Z"/><path class="cls-2" d="M220.26,111.6c1-.44,1.55-.94,1.69-1.5l.16-1.43a4.89,4.89,0,0,0,0-.66,1.72,1.72,0,0,0-.37-1.33,2.71,2.71,0,0,0-1.62-.32H208.08c-1.26,0-1.89.3-1.89.88v.33a3.57,3.57,0,0,1,.05.77c0,1.37.51,2.2,1.42,2.49,1.79.59,2.69,1.45,2.69,2.57a6.53,6.53,0,0,1,0,.78L204,138.57l-6.06-23.63a9,9,0,0,1-.43-2.27c0-.39.53-.78,1.58-1.18a3.15,3.15,0,0,0,1.33-.78,5.27,5.27,0,0,0,.29-2.33,3.05,3.05,0,0,0-.29-1.65c-.19-.24-.64-.37-1.34-.37H177.51c-1,0-1.52.37-1.52,1.1V110c0,.49.38,1,1.16,1.54a4.71,4.71,0,0,1,2,2.6l2.47,9.52-4.15,16-6.68-24.74a8.87,8.87,0,0,1-.32-2.09c0-.49.35-1,1-1.43a2.27,2.27,0,0,0,1-.92,6.89,6.89,0,0,0,.16-2,2.55,2.55,0,0,0-.42-1.78,2.17,2.17,0,0,0-1.48-.39H150c-1,0-1.48.29-1.48.85V110c0,.71.5,1.24,1.48,1.61a3.36,3.36,0,0,1,2.21,2.2l12.6,47.42a8.91,8.91,0,0,1,.21,1.06c.46,2.56,1.21,3.85,2.27,3.85h9.22a2.15,2.15,0,0,0,1.37-.35,3.9,3.9,0,0,0,.79-1.92l6.65-26.3L192,163.46c0,.14.07.35.11.62.24,1.39.84,2.09,1.79,2.09h8.85a2.23,2.23,0,0,0,1.74-.55,11.18,11.18,0,0,0,1.21-3.41l12.71-48.37A3.26,3.26,0,0,1,220.26,111.6Z"/><path class="cls-2" d="M281.37,136a2,2,0,0,0,.26-1.09,11.14,11.14,0,0,0-.07-1.17l-.59-4.91a2.59,2.59,0,0,0-.38-1.39,2.78,2.78,0,0,0-1.33-.19H254.09a4.25,4.25,0,0,0-2.06.3,1.65,1.65,0,0,0-.48,1.28l-.42,5.55c0,.29,0,.58,0,.86a1,1,0,0,0,.43,1,4.44,4.44,0,0,0,1.9.25,4.12,4.12,0,0,0,2.06-.34,2.64,2.64,0,0,0,.75-1.71,12.39,12.39,0,0,1,1-3.8,1.46,1.46,0,0,1,1.24-.71h1.56V161a1.27,1.27,0,0,1-.28.94,3.35,3.35,0,0,1-1.32.56,1.46,1.46,0,0,0-1.07,1.62c0,.75.08,1.2.25,1.36a1.87,1.87,0,0,0,1.16.24H273.9a2.93,2.93,0,0,0,1.41-.21c.21-.13.31-.6.31-1.41a2.28,2.28,0,0,0-.22-1.25,1.84,1.84,0,0,0-.91-.52c-1.1-.33-1.65-.94-1.65-1.81V129.92h1c.64,0,1.18.45,1.62,1.33a19,19,0,0,1,1.2,3.4c.2.84.47,1.34.8,1.5a6.42,6.42,0,0,0,2.25.24C280.65,136.39,281.2,136.26,281.37,136Z"/><path class="cls-2" d="M253.43,162.61a4.33,4.33,0,0,1-2-2.9l-5.63-26.21c-.14-.67-.28-1.34-.41-2a12.39,12.39,0,0,0-1-3.43,1.82,1.82,0,0,0-1.68-.79h-13.1c-.6,0-1,.11-1.1.31a3.74,3.74,0,0,0-.2,1.62,1.22,1.22,0,0,0,.68,1.27c1,.38,1.48.82,1.48,1.31a4.18,4.18,0,0,1-.17,1.12L224,160.94a2.65,2.65,0,0,1-1.3,1.58,2.46,2.46,0,0,0-1.2,2.12c0,.73.25,1.1.75,1.1h9c.39,0,.64-.07.74-.21a2.56,2.56,0,0,0,.15-1.17,2.28,2.28,0,0,0-.2-1.1,2.15,2.15,0,0,0-1.06-.65c-1.07-.39-1.6-.88-1.6-1.45a3.12,3.12,0,0,1,.29-1.24l.07-.22.4-2.19h8.55a23.34,23.34,0,0,1,.74,3.88c0,.55-.4,1-1.19,1.34a2.4,2.4,0,0,0-1,.67,3.63,3.63,0,0,0-.17,1.43c0,.61.23.91.68.91h15.24a1.34,1.34,0,0,0,1-.28,2.74,2.74,0,0,0,.24-1.49A1.72,1.72,0,0,0,254,163,2.79,2.79,0,0,0,253.43,162.61Zm-22.83-7.84,3.87-18.64,3.75,18.64Z"/><path class="cls-2" d="M344.32,127.25h-9.46a1.33,1.33,0,0,0-.79.16q-.21.15-.21.87a2.87,2.87,0,0,0,.29,1.54,2.63,2.63,0,0,0,1.29.7c1.12.32,1.68.86,1.68,1.63v13.72l-11.54-18.62h-9.49c-.84,0-1.26.56-1.26,1.67a2.07,2.07,0,0,0,.28,1.27,2.76,2.76,0,0,0,1.14.62,2.09,2.09,0,0,1,1.22.84,3.43,3.43,0,0,1,.27,1.54v28.19c0,.46-.59.87-1.76,1.23-.61.18-.91.49-.91.93a5.59,5.59,0,0,0,.17,1.83c.11.24.4.37.85.37h9.1c.59,0,.93-.07,1-.19a7.88,7.88,0,0,0,.12-1.93c0-.56-.48-1-1.45-1.29-1.14-.35-1.71-.88-1.71-1.58V143.92l13.44,21.82h5.83V131.86a1.17,1.17,0,0,1,.31-.86,4,4,0,0,1,1.51-.65,1.28,1.28,0,0,0,.71-.4,2.59,2.59,0,0,0,.15-1.12C345.11,127.82,344.85,127.3,344.32,127.25Z"/><path class="cls-2" d="M312.29,162.61a4.34,4.34,0,0,1-2-2.9l-5.63-26.21c-.13-.67-.27-1.34-.41-2a12,12,0,0,0-1-3.43,1.82,1.82,0,0,0-1.68-.79h-13.1c-.59,0-1,.11-1.09.31a3.69,3.69,0,0,0-.21,1.62,1.22,1.22,0,0,0,.69,1.27c1,.38,1.48.82,1.48,1.31a4.62,4.62,0,0,1-.17,1.12l-6.35,28.06a2.67,2.67,0,0,1-1.31,1.58,2.46,2.46,0,0,0-1.2,2.12c0,.73.25,1.1.75,1.1h9c.39,0,.63-.07.74-.21a2.56,2.56,0,0,0,.15-1.17,2.15,2.15,0,0,0-.21-1.1,2.11,2.11,0,0,0-1-.65c-1.07-.39-1.61-.88-1.61-1.45a3.3,3.3,0,0,1,.29-1.24l.07-.22.4-2.19h8.55a22.69,22.69,0,0,1,.75,3.88c0,.55-.4,1-1.2,1.34a2.56,2.56,0,0,0-1,.67,3.63,3.63,0,0,0-.17,1.43c0,.61.23.91.69.91h15.23a1.35,1.35,0,0,0,1-.28A2.74,2.74,0,0,0,313,164a1.83,1.83,0,0,0-.14-.94A3.11,3.11,0,0,0,312.29,162.61Zm-22.84-7.84,3.88-18.64,3.75,18.64Z"/><path class="cls-2" d="M422.93,156.46a4.15,4.15,0,0,0-2.16.41,4,4,0,0,0-1.2,1.72,17.1,17.1,0,0,1-2,3.77,3.16,3.16,0,0,1-2.31.66H413.4V146.59h2.67a1.79,1.79,0,0,1,1.12.29,3.49,3.49,0,0,1,.74,1.55,3.4,3.4,0,0,0,.77,1.68,2.77,2.77,0,0,0,1.56.3,5.37,5.37,0,0,0,2.12-.23,1.09,1.09,0,0,0,.35-1v-7.94q0-1.05-.36-1.2a15,15,0,0,0-3.07-.16,1,1,0,0,0-.81.34,7.65,7.65,0,0,0-.67,2,2.08,2.08,0,0,1-.68,1.25,2.71,2.71,0,0,1-1.41.28H413.4V130.19h2.32a2.28,2.28,0,0,1,1.72.83,13.55,13.55,0,0,1,1.82,3,3.1,3.1,0,0,0,1.21,1.49,6.66,6.66,0,0,0,2.49.3c1.1,0,1.65-.22,1.65-.64a2.92,2.92,0,0,0-.13-.65l-1.75-6.15a1.37,1.37,0,0,0-.59-.91,2.92,2.92,0,0,0-1.2-.19H399.06a2.31,2.31,0,0,0-1.2.18q-.21.18-.21,1.11a3.14,3.14,0,0,0,.19,1.38,2.58,2.58,0,0,0,1.22.6c1,.3,1.52.6,1.54.91v29.73c0,.64-.62,1.14-1.88,1.5-.82.26-1.24.66-1.24,1.22a3,3,0,0,0,.24,1.58c.16.19.53.28,1.1.28H421.7c.77,0,1.24-.1,1.39-.3a6.55,6.55,0,0,0,.56-1.78l1.27-5.41a3.81,3.81,0,0,0,.14-.83Q425.06,156.46,422.93,156.46Z"/><path class="cls-2" d="M457.61,133.74l-.58-4.91c-.1-.8-.22-1.26-.38-1.39a2.83,2.83,0,0,0-1.34-.19H430.14a4.25,4.25,0,0,0-2.06.3,1.72,1.72,0,0,0-.48,1.28l-.41,5.55a8.38,8.38,0,0,0,0,.86,1,1,0,0,0,.43,1,4.47,4.47,0,0,0,1.9.25,4.12,4.12,0,0,0,2.06-.34,2.69,2.69,0,0,0,.76-1.71,12.49,12.49,0,0,1,1-3.8,1.46,1.46,0,0,1,1.25-.71h1.55V161a1.32,1.32,0,0,1-.27.94,3.51,3.51,0,0,1-1.32.56,1.46,1.46,0,0,0-1.08,1.62c0,.75.08,1.2.26,1.36a1.82,1.82,0,0,0,1.15.24H450a3,3,0,0,0,1.41-.21c.2-.13.31-.6.31-1.41a2.26,2.26,0,0,0-.23-1.25,1.84,1.84,0,0,0-.91-.52c-1.09-.33-1.64-.94-1.64-1.81V129.92h1c.64,0,1.17.45,1.61,1.33a19,19,0,0,1,1.2,3.4c.2.84.47,1.34.8,1.5a6.46,6.46,0,0,0,2.25.24c.91,0,1.46-.13,1.63-.39a2,2,0,0,0,.26-1.09A11.14,11.14,0,0,0,457.61,133.74Z"/><path class="cls-2" d="M395.53,127.25h-8.48c-.46,0-.74.09-.84.28a3.48,3.48,0,0,0-.15,1.33v.38l0,.33c0,.24.37.48,1.1.73,1.17.39,1.75.9,1.75,1.54a1.68,1.68,0,0,1-.07.5l-5.27,18.42-4.71-18.43a2,2,0,0,1-.11-.6c0-.73.51-1.26,1.51-1.59.44-.14.68-.32.72-.52.05-.9.07-1.36.07-1.37,0-.66-.26-1-.79-1H364.63c-.55,0-.83.26-.83.79v.33l0,.3a2.89,2.89,0,0,1,0,.5l0,.33a1,1,0,0,0,.15.65,3.22,3.22,0,0,0,.84.44,2.57,2.57,0,0,1,1.65,1.74L375.35,164a7,7,0,0,0,.69,1.86.85.85,0,0,0,.68.29h6.89q.66,0,.72-.27l.55-1.88,8.93-31a6.7,6.7,0,0,1,.69-1.75,4,4,0,0,1,1.3-.82c.28-.11.44-.25.48-.43a7.19,7.19,0,0,0,.07-1.37,3.29,3.29,0,0,0-.12-1.17C396.15,127.33,395.92,127.25,395.53,127.25Z"/><path class="cls-2" d="M182.91,180.3a47.38,47.38,0,1,1,36.53-77.76l4.76-4.75A54.09,54.09,0,1,0,212.91,178l-3.16-5.95A47.54,47.54,0,0,1,182.91,180.3Z"/><path class="cls-2" d="M513.39,90.56H239.93a70.86,70.86,0,1,0-17.26,101.1l-4.91-7.28a62,62,0,1,1,19.51-81.84l276.12,0Z"/><path class="cls-2" d="M300.46,73.46c-.21,0-.7.45-1.47,1.37s-1.24,1.36-1.41,1.36a4,4,0,0,1-1.17-.5c-.75-.43-1.17-.66-1.25-.69s-.68.52-1.55,1.57c-.35.43-.84,1-1.46,1.83,0,.25.42.57,1.24,1a4.72,4.72,0,0,0,1.66.57c.38,0,.88-.39,1.52-1.17a7.84,7.84,0,0,1,1.06-1.19,13.45,13.45,0,0,1,2,1c.46,0,1.09-.47,1.88-1.41A4,4,0,0,0,302.71,75C302.71,74.61,302,74.09,300.46,73.46Z"/><path class="cls-2" d="M308.05,72.1c-.94.74-1.77,1.42-2.5,2.06a7.19,7.19,0,0,0,1.65,2.43,3.56,3.56,0,0,0,1.36-.77c.7-.51,1.05-.85,1.05-1a3.8,3.8,0,0,0-.76-1.38A5.18,5.18,0,0,1,308.05,72.1Z"/><path class="cls-2" d="M320.26,52.28a20.15,20.15,0,0,0-1,5.9,20.08,20.08,0,0,1-.69,6.18A4.48,4.48,0,0,1,314,67.68h-3.26c-1,0-1.52-.21-1.52-.64a6,6,0,0,1,.38-2.14q.54-1.43.84-2.13l-.2-.15A10.06,10.06,0,0,0,308.43,65a8.69,8.69,0,0,1-1.73,2.28,3.87,3.87,0,0,1-2.2.44h-4.17c-1,0-1.53-.21-1.53-.64a6.27,6.27,0,0,1,.38-2.14q.56-1.43.84-2.13l-.2-.15A10.07,10.07,0,0,0,298,65a8.69,8.69,0,0,1-1.73,2.28,3.83,3.83,0,0,1-2.19.44h-2.64a3.46,3.46,0,0,1-1.84-.49q2.87-3.37,2.86-5.82a1.69,1.69,0,0,0-1.95-1.88A5.39,5.39,0,0,0,287.3,61a34.87,34.87,0,0,0-2.64,2.64,24.15,24.15,0,0,0,.76-4.71l.49-4.89a6.06,6.06,0,0,1,.33-1.14,4.92,4.92,0,0,0,.29-1,.42.42,0,0,0-.4-.44,2.47,2.47,0,0,0-.67,1c-.28.59-.55,1.19-.82,1.8a9.69,9.69,0,0,0-1,2.57c-.23,3.12-.39,5.45-.47,7-.29,2.57-.87,3.86-1.74,3.86h-1.8a10.32,10.32,0,0,0-4.5,1.08A15.06,15.06,0,0,0,271,72l-3.53,4a41.75,41.75,0,0,1-6.19,5.4c-2.51,1.62-4.4,2.79-5.68,3.53a12.11,12.11,0,0,0-1.35.83c.08.19.19.28.31.28a10,10,0,0,0,1.71-.38,19.44,19.44,0,0,0,5.82-2.54,40.78,40.78,0,0,0,6.23-5.47l2.75-2.9a11.64,11.64,0,0,1,3.2-2.32,13.31,13.31,0,0,1,5.3-.85h1.17a11.2,11.2,0,0,0,4.25-.71,27.72,27.72,0,0,0,7,.71h.78v0a6.75,6.75,0,0,0,4.72-1.91,3.39,3.39,0,0,0,2.18,1.47,8.82,8.82,0,0,0,2.72.46h1.05v0a6.79,6.79,0,0,0,4.44-1.89,3.44,3.44,0,0,0,2.19,1.47,8.62,8.62,0,0,0,2.69.45H314c1.35,0,2.72-1.13,4.1-3.37a23.4,23.4,0,0,0,3.06-10.13c.22-2.5.38-4.38.49-5.62a20.64,20.64,0,0,1,.66-3.75l-.22-.18A9.88,9.88,0,0,0,320.26,52.28ZM287.82,65.61A6.84,6.84,0,0,1,284,67a1.46,1.46,0,0,1-.49-.11q3.63-4.1,4.74-4.09c.91,0,1.37.32,1.37,1C289.61,64.16,289,64.79,287.82,65.61Z"/><path class="cls-2" d="M255.9,76.54q.86-1,1-1.05a11.8,11.8,0,0,1,1.78.89c.42,0,1-.43,1.7-1.28a3.68,3.68,0,0,0,1.07-1.91c0-.25-.67-.73-2-1.44-.18,0-.62.42-1.31,1.25s-1.12,1.24-1.29,1.24a9.43,9.43,0,0,1-2.19-1.09c-.18,0-.63.44-1.35,1.33,0,0-.47.63-1.32,1.73q0,.35,1.11.87a4,4,0,0,0,1.47.51C254.87,77.59,255.32,77.24,255.9,76.54Z"/><path class="cls-2" d="M253.74,71.65v-.19A7,7,0,0,0,255.58,70a12.3,12.3,0,0,0,2.85-5A52.07,52.07,0,0,0,260,59.34a1.09,1.09,0,0,0-.14-.54,15.74,15.74,0,0,0-1.94,2.63,8.78,8.78,0,0,0-1.32,2.9c-.21,1.37-.33,2.17-.37,2.39a3.11,3.11,0,0,1-2.58,1h-.55a7.66,7.66,0,0,1-2.62-1.18q-3.42,0-6.55,6.56a5.28,5.28,0,0,0-.51,1.65c0,.18.06.27.23.27s.45-.19.66-.56l.47-.91q1.78-2.81,3.41-2.81a4.08,4.08,0,0,1,1.76.37,9.29,9.29,0,0,0,1.31.47,12.37,12.37,0,0,0,1.79.11Z"/><path class="cls-2" d="M245.38,65.81c.4,0,.9-.39,1.51-1.18s1-1.17,1.11-1.17a13.66,13.66,0,0,1,2,1c.46,0,1.09-.47,1.88-1.41a4.09,4.09,0,0,0,1.2-2.12c0-.35-.76-.88-2.28-1.6-.22,0-.71.47-1.48,1.39S248.08,62.1,248,62.1a4,4,0,0,1-1.28-.61,5.18,5.18,0,0,0-1.16-.61c-.22,0-1.22,1.14-3,3.4,0,.23.41.55,1.23,1A4.66,4.66,0,0,0,245.38,65.81Z"/><path class="cls-2" d="M326.61,51.66a40.33,40.33,0,0,0-1.09,4.51q-.93,10.61-1.47,16l.09,0a13.39,13.39,0,0,0,1.38-2.9,21.11,21.11,0,0,0,1.28-4.94l.75-7.83c.47-4.8.71-8,.71-9.77l-.24.11Q327.51,48.37,326.61,51.66Z"/><path class="cls-2" d="M426.2,59.87a6.38,6.38,0,0,0,2.38.94q1.62,0,3.3-2.73.27-.4,2.1-4.14c0-.55-.75-1.28-2.27-2.21a7.8,7.8,0,0,0-3.2-1.38q-.87,0-3,3.44c-1.4,2.28-2.1,3.8-2.1,4.54.08.23.14.43.19.6A6.07,6.07,0,0,1,426.2,59.87Z"/><path class="cls-2" d="M493,28.51q-2.55-2.36-4-2.36c-.85,0-2.2,1.69-4,5.06s-2.67,5.45-2.67,6.59q0,5.14,4.33,5.14a12.93,12.93,0,0,0,2.31-.3,13.13,13.13,0,0,1,2.32-.3c.52,0,.79.21.79.63q0,3.26-7.53,9.56-2.64,2.2-7.53,5.73a28.29,28.29,0,0,0-4,3.11.91.91,0,0,0,.82.41c1,0,3.21-.64,6.63-1.91q5.71-2.15,8-4.08a19.37,19.37,0,0,0,3.5-3.68,31.88,31.88,0,0,0,3.28-8.65,28,28,0,0,0,.85-7.12A10.21,10.21,0,0,0,493,28.51Z"/><path class="cls-2" d="M480,36.72a14.74,14.74,0,0,0,1.43-4.95c0-2.59-1.35-3.89-4-3.89-2,0-4.2,1-6.72,3.13q-1.69,1.43-5.47,5.45c.48-1.1,1-4.34,1.58-9.74l1-10.11a14.86,14.86,0,0,1,.67-2.36,9.67,9.67,0,0,0,.61-2,.87.87,0,0,0-.83-.9,4.85,4.85,0,0,0-1.39,2c-.57,1.23-1.14,2.46-1.69,3.71a20.08,20.08,0,0,0-2,5.32q-.72,9.66-1,14.5-.9,8-3.6,8h-4.1c-.65,0-1.63-.06-2.93-.17s-2.28-.17-2.94-.17-1.27,1.08-1.46,3.23a59.68,59.68,0,0,1-1.77,11,30.42,30.42,0,0,1-6.82,12.18q-5.42,5.75-12.3,5.74a16.18,16.18,0,0,1-9.34-2.55,9.34,9.34,0,0,1-4.29-8.24,22.47,22.47,0,0,1,.91-6.89L416,52.71a15.34,15.34,0,0,0,.68-2q0-1.08-.72-1.08c-.66,0-1.5.92-2.53,2.77A40.79,40.79,0,0,0,408,72.5a12.71,12.71,0,0,0,4,9.55,13.49,13.49,0,0,0,9.72,3.81q11.22,0,19.88-12.09A48.83,48.83,0,0,0,450.5,51.2,5.34,5.34,0,0,0,454.91,53H457v0c5.68-.11,10.35-1.4,14-4S477.63,42.34,480,36.72Zm-17.19,6.36q7.53-8.46,9.82-8.46c1.88,0,2.82.66,2.82,2q0,1.39-3.69,3.91a14,14,0,0,1-7.93,2.79A3.62,3.62,0,0,1,462.82,43.08Z"/><path class="cls-2" d="M381.87,55.08q1.83,0,3.3-3.78a14.06,14.06,0,0,0-.82-1.76,2.52,2.52,0,0,1,.73-1.31,2.68,2.68,0,0,0,.73-1.23q0-.45-.6-.45c-.42,0-1,.62-1.83,1.85a6.13,6.13,0,0,0-1.2,2.59c.32.66.56,1.19.71,1.57a1.83,1.83,0,0,1-.83,1.36c-.55.46-.82.74-.82.82S381.45,55.08,381.87,55.08Z"/><path class="cls-2" d="M374.1,58.24q-.5,0-2.82,4.53c1.08,1.45,1.64,2.21,1.67,2.28a4.93,4.93,0,0,1,.9,2.61c0,1.27-1.13,2.61-3.37,4l-5.12,2.72c.11.31.4.47.88.47a24.31,24.31,0,0,0,3.25-.83,13.72,13.72,0,0,0,3.28-1.23c1.18-1,2.35-3,3.49-6.2a10.22,10.22,0,0,0,.66-2.23A8.24,8.24,0,0,0,375,59.14Q374.28,58.24,374.1,58.24Z"/><path class="cls-2" d="M400.28,52.28a20.15,20.15,0,0,0-1,5.9,20.08,20.08,0,0,1-.69,6.18A4.49,4.49,0,0,1,394,67.68h-1.15q-3.11,0-3.11-4.71c0-.27,0-.61,0-1s0-.78,0-.92a32.83,32.83,0,0,1,.52-5q.72-4.24.84-5.28l-.25-.3a21.12,21.12,0,0,0-3,10.42q0,9-2.59,12a6.63,6.63,0,0,1-1.93,1.59,17.82,17.82,0,0,1-1.89.77c.4-1.38.8-2.76,1.2-4.12a22.34,22.34,0,0,0,.66-5.55A39.67,39.67,0,0,1,384.48,56a.78.78,0,0,1-.08-.29l-.1-.11a22.34,22.34,0,0,0-2.77,6,22.77,22.77,0,0,0-.42,5.55,29.86,29.86,0,0,1-1.06,8.45l-1.09.27c-.47.12-.71.25-.71.4s.36.43,1.09.7a6,6,0,0,0,2,.39A6.18,6.18,0,0,0,387,74.29a16.9,16.9,0,0,0,1.66-3.68,7.31,7.31,0,0,0,4.1,1H394c1.35,0,2.71-1.13,4.1-3.37a23.4,23.4,0,0,0,3.06-10.13c.21-2.5.38-4.38.49-5.62a20.88,20.88,0,0,1,.65-3.75l-.22-.18A9.89,9.89,0,0,0,400.28,52.28Z"/><path class="cls-2" d="M341.86,65.81c.4,0,.9-.39,1.5-1.18s1-1.17,1.12-1.17a14,14,0,0,1,2,1q.69,0,1.89-1.41a4.13,4.13,0,0,0,1.19-2.12c0-.35-.76-.88-2.28-1.6-.21,0-.71.47-1.48,1.39s-1.22,1.39-1.36,1.39a4,4,0,0,1-1.28-.61,5,5,0,0,0-1.16-.61c-.21,0-1.22,1.14-3,3.4,0,.23.41.55,1.24,1A4.6,4.6,0,0,0,341.86,65.81Z"/><path class="cls-2" d="M366.11,63.58a5,5,0,0,0-1.5-3.79,3.44,3.44,0,0,0-1.92-1.14c-.42,0-1.07.82-1.95,2.45a8.9,8.9,0,0,0-1.3,3.19c0,1.65.7,2.48,2.1,2.48a7,7,0,0,0,1.12-.14,6.06,6.06,0,0,1,1.12-.15c.25,0,.38.1.38.31q0,1.58-3.64,4.62c-.66.56-1.55,1.24-2.66,2a.94.94,0,0,0,.06-.27c0-.25-.68-.73-2-1.44-.18,0-.62.42-1.31,1.25s-1.12,1.24-1.29,1.24a9.47,9.47,0,0,1-2.18-1.09c-.19,0-.64.44-1.35,1.33l-1.33,1.73q0,.35,1.11.87a4,4,0,0,0,1.47.51c.33,0,.78-.35,1.36-1a4.83,4.83,0,0,1,1-1.05,11.94,11.94,0,0,1,1.79.89,1.92,1.92,0,0,0,1.12-.66,23,23,0,0,0,2.28-.76,13.66,13.66,0,0,0,3.86-2,9.64,9.64,0,0,0,1.7-1.78A15.28,15.28,0,0,0,365.69,67,13.29,13.29,0,0,0,366.11,63.58Z"/><path class="cls-2" d="M350.21,71.65v-.19A6.83,6.83,0,0,0,352.05,70a12.3,12.3,0,0,0,2.85-5,53.73,53.73,0,0,0,1.58-5.62,1,1,0,0,0-.15-.54,16.31,16.31,0,0,0-1.94,2.63,8.78,8.78,0,0,0-1.32,2.9c-.2,1.37-.33,2.17-.36,2.39a3.12,3.12,0,0,1-2.59,1h-.54A7.59,7.59,0,0,1,347,66.5q-3.42,0-6.55,6.56a5.28,5.28,0,0,0-.51,1.65q0,.27.24.27c.23,0,.45-.19.65-.56l.48-.91q1.78-2.81,3.4-2.81a4.16,4.16,0,0,1,1.77.37,8.46,8.46,0,0,0,1.31.47,12.12,12.12,0,0,0,1.78.11Z"/><path class="cls-3" d="M220.26,110.6c1-.44,1.55-.94,1.69-1.5l.16-1.43a4.89,4.89,0,0,0,0-.66,1.72,1.72,0,0,0-.37-1.33,2.71,2.71,0,0,0-1.62-.32H208.08c-1.26,0-1.89.3-1.89.88v.33a3.57,3.57,0,0,1,.05.77c0,1.37.51,2.2,1.42,2.49,1.79.59,2.69,1.45,2.69,2.57a6.53,6.53,0,0,1,0,.78L204,137.57l-6.06-23.63a9,9,0,0,1-.43-2.27c0-.39.53-.78,1.58-1.18a3.15,3.15,0,0,0,1.33-.78,5.27,5.27,0,0,0,.29-2.33,3.05,3.05,0,0,0-.29-1.65c-.19-.24-.64-.37-1.34-.37H177.51c-1,0-1.52.37-1.52,1.1V109c0,.49.38,1,1.16,1.54a4.71,4.71,0,0,1,2,2.6l2.47,9.52-4.15,16-6.68-24.74a8.87,8.87,0,0,1-.32-2.09c0-.49.35-1,1-1.43a2.27,2.27,0,0,0,1-.92,6.89,6.89,0,0,0,.16-2,2.55,2.55,0,0,0-.42-1.78,2.17,2.17,0,0,0-1.48-.39H150c-1,0-1.48.29-1.48.85V109c0,.71.5,1.24,1.48,1.61a3.36,3.36,0,0,1,2.21,2.2l12.6,47.42a8.91,8.91,0,0,1,.21,1.06c.46,2.56,1.21,3.85,2.27,3.85h9.22a2.15,2.15,0,0,0,1.37-.35,3.9,3.9,0,0,0,.79-1.92l6.65-26.3L192,162.46c0,.14.07.35.11.62.24,1.39.84,2.09,1.79,2.09h8.85a2.23,2.23,0,0,0,1.74-.55,11.18,11.18,0,0,0,1.21-3.41l12.71-48.37A3.26,3.26,0,0,1,220.26,110.6Z"/><path class="cls-3" d="M281.37,135a2,2,0,0,0,.26-1.09,11.14,11.14,0,0,0-.07-1.17l-.59-4.91a2.59,2.59,0,0,0-.38-1.39,2.78,2.78,0,0,0-1.33-.19H254.09a4.25,4.25,0,0,0-2.06.3,1.65,1.65,0,0,0-.48,1.28l-.42,5.55c0,.29,0,.58,0,.86a1,1,0,0,0,.43,1,4.44,4.44,0,0,0,1.9.25,4.12,4.12,0,0,0,2.06-.34,2.64,2.64,0,0,0,.75-1.71,12.39,12.39,0,0,1,1-3.8,1.46,1.46,0,0,1,1.24-.71h1.56V160a1.27,1.27,0,0,1-.28.94,3.35,3.35,0,0,1-1.32.56,1.46,1.46,0,0,0-1.07,1.62c0,.75.08,1.2.25,1.36a1.87,1.87,0,0,0,1.16.24H273.9a2.93,2.93,0,0,0,1.41-.21c.21-.13.31-.6.31-1.41a2.28,2.28,0,0,0-.22-1.25,1.84,1.84,0,0,0-.91-.52c-1.1-.33-1.65-.94-1.65-1.81V128.92h1c.64,0,1.18.45,1.62,1.33a19,19,0,0,1,1.2,3.4c.2.84.47,1.34.8,1.5a6.42,6.42,0,0,0,2.25.24C280.65,135.39,281.2,135.26,281.37,135Z"/><path class="cls-3" d="M253.43,161.61a4.33,4.33,0,0,1-2-2.9l-5.63-26.21c-.14-.67-.28-1.34-.41-2a12.39,12.39,0,0,0-1-3.43,1.82,1.82,0,0,0-1.68-.79h-13.1c-.6,0-1,.11-1.1.31a3.74,3.74,0,0,0-.2,1.62,1.22,1.22,0,0,0,.68,1.27c1,.38,1.48.82,1.48,1.31a4.18,4.18,0,0,1-.17,1.12L224,159.94a2.65,2.65,0,0,1-1.3,1.58,2.46,2.46,0,0,0-1.2,2.12c0,.73.25,1.1.75,1.1h9c.39,0,.64-.07.74-.21a2.56,2.56,0,0,0,.15-1.17,2.28,2.28,0,0,0-.2-1.1,2.15,2.15,0,0,0-1.06-.65c-1.07-.39-1.6-.88-1.6-1.45a3.12,3.12,0,0,1,.29-1.24l.07-.22.4-2.19h8.55a23.34,23.34,0,0,1,.74,3.88c0,.55-.4,1-1.19,1.34a2.4,2.4,0,0,0-1,.67,3.63,3.63,0,0,0-.17,1.43c0,.61.23.91.68.91h15.24a1.34,1.34,0,0,0,1-.28,2.74,2.74,0,0,0,.24-1.49A1.72,1.72,0,0,0,254,162,2.79,2.79,0,0,0,253.43,161.61Zm-22.83-7.84,3.87-18.64,3.75,18.64Z"/><path class="cls-3" d="M344.32,126.25h-9.46a1.33,1.33,0,0,0-.79.16q-.21.15-.21.87a2.87,2.87,0,0,0,.29,1.54,2.63,2.63,0,0,0,1.29.7c1.12.32,1.68.86,1.68,1.63v13.72l-11.54-18.62h-9.49c-.84,0-1.26.56-1.26,1.67a2.07,2.07,0,0,0,.28,1.27,2.76,2.76,0,0,0,1.14.62,2.09,2.09,0,0,1,1.22.84,3.43,3.43,0,0,1,.27,1.54v28.19c0,.46-.59.87-1.76,1.23-.61.18-.91.49-.91.93a5.59,5.59,0,0,0,.17,1.83c.11.24.4.37.85.37h9.1c.59,0,.93-.07,1-.19a7.88,7.88,0,0,0,.12-1.93c0-.56-.48-1-1.45-1.29-1.14-.35-1.71-.88-1.71-1.58V142.92l13.44,21.82h5.83V130.86a1.17,1.17,0,0,1,.31-.86,4,4,0,0,1,1.51-.65,1.28,1.28,0,0,0,.71-.4,2.59,2.59,0,0,0,.15-1.12C345.11,126.82,344.85,126.3,344.32,126.25Z"/><path class="cls-3" d="M312.29,161.61a4.34,4.34,0,0,1-2-2.9l-5.63-26.21c-.13-.67-.27-1.34-.41-2a12,12,0,0,0-1-3.43,1.82,1.82,0,0,0-1.68-.79h-13.1c-.59,0-1,.11-1.09.31a3.69,3.69,0,0,0-.21,1.62,1.22,1.22,0,0,0,.69,1.27c1,.38,1.48.82,1.48,1.31a4.62,4.62,0,0,1-.17,1.12l-6.35,28.06a2.67,2.67,0,0,1-1.31,1.58,2.46,2.46,0,0,0-1.2,2.12c0,.73.25,1.1.75,1.1h9c.39,0,.63-.07.74-.21a2.56,2.56,0,0,0,.15-1.17,2.15,2.15,0,0,0-.21-1.1,2.11,2.11,0,0,0-1-.65c-1.07-.39-1.61-.88-1.61-1.45a3.3,3.3,0,0,1,.29-1.24l.07-.22.4-2.19h8.55a22.69,22.69,0,0,1,.75,3.88c0,.55-.4,1-1.2,1.34a2.56,2.56,0,0,0-1,.67,3.63,3.63,0,0,0-.17,1.43c0,.61.23.91.69.91h15.23a1.35,1.35,0,0,0,1-.28A2.74,2.74,0,0,0,313,163a1.83,1.83,0,0,0-.14-.94A3.11,3.11,0,0,0,312.29,161.61Zm-22.84-7.84,3.88-18.64,3.75,18.64Z"/><path class="cls-4" d="M422.93,155.46a4.15,4.15,0,0,0-2.16.41,4,4,0,0,0-1.2,1.72,17.1,17.1,0,0,1-2,3.77,3.16,3.16,0,0,1-2.31.66H413.4V145.59h2.67a1.79,1.79,0,0,1,1.12.29,3.49,3.49,0,0,1,.74,1.55,3.4,3.4,0,0,0,.77,1.68,2.77,2.77,0,0,0,1.56.3,5.37,5.37,0,0,0,2.12-.23,1.09,1.09,0,0,0,.35-1v-7.94q0-1.05-.36-1.2a15,15,0,0,0-3.07-.16,1,1,0,0,0-.81.34,7.65,7.65,0,0,0-.67,2,2.08,2.08,0,0,1-.68,1.25,2.71,2.71,0,0,1-1.41.28H413.4V129.19h2.32a2.28,2.28,0,0,1,1.72.83,13.55,13.55,0,0,1,1.82,3,3.1,3.1,0,0,0,1.21,1.49,6.66,6.66,0,0,0,2.49.3c1.1,0,1.65-.22,1.65-.64a2.92,2.92,0,0,0-.13-.65l-1.75-6.15a1.37,1.37,0,0,0-.59-.91,2.92,2.92,0,0,0-1.2-.19H399.06a2.31,2.31,0,0,0-1.2.18q-.21.18-.21,1.11a3.14,3.14,0,0,0,.19,1.38,2.58,2.58,0,0,0,1.22.6c1,.3,1.52.6,1.54.91v29.73c0,.64-.62,1.14-1.88,1.5-.82.26-1.24.66-1.24,1.22a3,3,0,0,0,.24,1.58c.16.19.53.28,1.1.28H421.7c.77,0,1.24-.1,1.39-.3a6.55,6.55,0,0,0,.56-1.78l1.27-5.41a3.81,3.81,0,0,0,.14-.83Q425.06,155.46,422.93,155.46Z"/><path class="cls-4" d="M457.61,132.74l-.58-4.91c-.1-.8-.22-1.26-.38-1.39a2.83,2.83,0,0,0-1.34-.19H430.14a4.25,4.25,0,0,0-2.06.3,1.72,1.72,0,0,0-.48,1.28l-.41,5.55a8.38,8.38,0,0,0,0,.86,1,1,0,0,0,.43,1,4.47,4.47,0,0,0,1.9.25,4.12,4.12,0,0,0,2.06-.34,2.69,2.69,0,0,0,.76-1.71,12.49,12.49,0,0,1,1-3.8,1.46,1.46,0,0,1,1.25-.71h1.55V160a1.32,1.32,0,0,1-.27.94,3.51,3.51,0,0,1-1.32.56,1.46,1.46,0,0,0-1.08,1.62c0,.75.08,1.2.26,1.36a1.82,1.82,0,0,0,1.15.24H450a3,3,0,0,0,1.41-.21c.2-.13.31-.6.31-1.41a2.26,2.26,0,0,0-.23-1.25,1.84,1.84,0,0,0-.91-.52c-1.09-.33-1.64-.94-1.64-1.81V128.92h1c.64,0,1.17.45,1.61,1.33a19,19,0,0,1,1.2,3.4c.2.84.47,1.34.8,1.5a6.46,6.46,0,0,0,2.25.24c.91,0,1.46-.13,1.63-.39a2,2,0,0,0,.26-1.09A11.14,11.14,0,0,0,457.61,132.74Z"/><path class="cls-4" d="M395.53,126.25h-8.48c-.46,0-.74.09-.84.28a3.48,3.48,0,0,0-.15,1.33v.38l0,.33c0,.24.37.48,1.1.73,1.17.39,1.75.9,1.75,1.54a1.68,1.68,0,0,1-.07.5l-5.27,18.42-4.71-18.43a2,2,0,0,1-.11-.6c0-.73.51-1.26,1.51-1.59.44-.14.68-.32.72-.52.05-.9.07-1.36.07-1.37,0-.66-.26-1-.79-1H364.63c-.55,0-.83.26-.83.79v.33l0,.3a2.89,2.89,0,0,1,0,.5l0,.33a1,1,0,0,0,.15.65,3.22,3.22,0,0,0,.84.44,2.57,2.57,0,0,1,1.65,1.74L375.35,163a7,7,0,0,0,.69,1.86.85.85,0,0,0,.68.29h6.89q.66,0,.72-.27l.55-1.88,8.93-31a6.7,6.7,0,0,1,.69-1.75,4,4,0,0,1,1.3-.82c.28-.11.44-.25.48-.43a7.19,7.19,0,0,0,.07-1.37,3.29,3.29,0,0,0-.12-1.17C396.15,126.33,395.92,126.25,395.53,126.25Z"/><path class="cls-4" d="M182.91,179.3a47.38,47.38,0,1,1,36.53-77.76l4.76-4.75A54.09,54.09,0,1,0,212.91,177l-3.16-5.95A47.54,47.54,0,0,1,182.91,179.3Z"/><path class="cls-3" d="M513.39,89.56H239.93a70.86,70.86,0,1,0-17.26,101.1l-4.91-7.28a62,62,0,1,1,19.51-81.84l276.12,0Z"/><path class="cls-2" d="M300.46,72.46c-.21,0-.7.45-1.47,1.37s-1.24,1.36-1.41,1.36a4,4,0,0,1-1.17-.5c-.75-.43-1.17-.66-1.25-.69s-.68.52-1.55,1.57c-.35.43-.84,1-1.46,1.83,0,.25.42.57,1.24,1a4.72,4.72,0,0,0,1.66.57c.38,0,.88-.39,1.52-1.17a7.84,7.84,0,0,1,1.06-1.19,13.45,13.45,0,0,1,2,1c.46,0,1.09-.47,1.88-1.41A4,4,0,0,0,302.71,74C302.71,73.61,302,73.09,300.46,72.46Z"/><path class="cls-2" d="M308.05,71.1c-.94.74-1.77,1.42-2.5,2.06a7.19,7.19,0,0,0,1.65,2.43,3.56,3.56,0,0,0,1.36-.77c.7-.51,1.05-.85,1.05-1a3.8,3.8,0,0,0-.76-1.38A5.18,5.18,0,0,1,308.05,71.1Z"/><path class="cls-2" d="M320.26,51.28a20.15,20.15,0,0,0-1,5.9,20.08,20.08,0,0,1-.69,6.18A4.48,4.48,0,0,1,314,66.68h-3.26c-1,0-1.52-.21-1.52-.64a6,6,0,0,1,.38-2.14q.54-1.42.84-2.13l-.2-.15A10.06,10.06,0,0,0,308.43,64a8.69,8.69,0,0,1-1.73,2.28,3.87,3.87,0,0,1-2.2.44h-4.17c-1,0-1.53-.21-1.53-.64a6.27,6.27,0,0,1,.38-2.14q.56-1.42.84-2.13l-.2-.15A10.07,10.07,0,0,0,298,64a8.69,8.69,0,0,1-1.73,2.28,3.83,3.83,0,0,1-2.19.44h-2.64a3.46,3.46,0,0,1-1.84-.49q2.87-3.37,2.86-5.82a1.69,1.69,0,0,0-1.95-1.88A5.39,5.39,0,0,0,287.3,60a34.87,34.87,0,0,0-2.64,2.64,24.15,24.15,0,0,0,.76-4.71l.49-4.89a6.06,6.06,0,0,1,.33-1.14,4.92,4.92,0,0,0,.29-1,.42.42,0,0,0-.4-.44,2.47,2.47,0,0,0-.67,1c-.28.59-.55,1.19-.82,1.8a9.69,9.69,0,0,0-1,2.57c-.23,3.12-.39,5.45-.47,7-.29,2.57-.87,3.86-1.74,3.86h-1.8a10.32,10.32,0,0,0-4.5,1.08A15.06,15.06,0,0,0,271,71l-3.53,4a41.75,41.75,0,0,1-6.19,5.4c-2.51,1.62-4.4,2.79-5.68,3.53a12.11,12.11,0,0,0-1.35.83c.08.19.19.28.31.28a10,10,0,0,0,1.71-.38,19.44,19.44,0,0,0,5.82-2.54,40.78,40.78,0,0,0,6.23-5.47l2.75-2.9a11.64,11.64,0,0,1,3.2-2.32,13.31,13.31,0,0,1,5.3-.85h1.17a11.2,11.2,0,0,0,4.25-.71,27.72,27.72,0,0,0,7,.71h.78v0a6.75,6.75,0,0,0,4.72-1.91,3.39,3.39,0,0,0,2.18,1.47,8.82,8.82,0,0,0,2.72.46h1.05v0a6.79,6.79,0,0,0,4.44-1.89,3.44,3.44,0,0,0,2.19,1.47,8.62,8.62,0,0,0,2.69.45H314c1.35,0,2.72-1.13,4.1-3.37a23.4,23.4,0,0,0,3.06-10.13c.22-2.5.38-4.38.49-5.62a20.64,20.64,0,0,1,.66-3.75l-.22-.18A9.88,9.88,0,0,0,320.26,51.28ZM287.82,64.61A6.84,6.84,0,0,1,284,66a1.46,1.46,0,0,1-.49-.11q3.63-4.1,4.74-4.09c.91,0,1.37.32,1.37,1C289.61,63.16,289,63.79,287.82,64.61Z"/><path class="cls-2" d="M255.9,75.54q.86-1,1-1.05a11.8,11.8,0,0,1,1.78.89c.42,0,1-.43,1.7-1.28a3.68,3.68,0,0,0,1.07-1.91c0-.25-.67-.73-2-1.44-.18,0-.62.42-1.31,1.25s-1.12,1.24-1.29,1.24a9.43,9.43,0,0,1-2.19-1.09c-.18,0-.63.44-1.35,1.33,0,0-.47.63-1.32,1.73q0,.35,1.11.87a4,4,0,0,0,1.47.51C254.87,76.59,255.32,76.24,255.9,75.54Z"/><path class="cls-2" d="M253.74,70.65v-.19A7,7,0,0,0,255.58,69a12.3,12.3,0,0,0,2.85-5A52.07,52.07,0,0,0,260,58.34a1.09,1.09,0,0,0-.14-.54,15.74,15.74,0,0,0-1.94,2.63,8.78,8.78,0,0,0-1.32,2.9c-.21,1.37-.33,2.17-.37,2.39a3.11,3.11,0,0,1-2.58,1h-.55a7.66,7.66,0,0,1-2.62-1.18q-3.42,0-6.55,6.56a5.28,5.28,0,0,0-.51,1.65c0,.18.06.27.23.27s.45-.19.66-.56l.47-.91q1.78-2.81,3.41-2.81a4.08,4.08,0,0,1,1.76.37,9.29,9.29,0,0,0,1.31.47,12.37,12.37,0,0,0,1.79.11Z"/><path class="cls-2" d="M245.38,64.81c.4,0,.9-.39,1.51-1.18s1-1.17,1.11-1.17a13.66,13.66,0,0,1,2,1c.46,0,1.09-.47,1.88-1.41a4.09,4.09,0,0,0,1.2-2.12c0-.35-.76-.88-2.28-1.6-.22,0-.71.47-1.48,1.39S248.08,61.1,248,61.1a4,4,0,0,1-1.28-.61,5.18,5.18,0,0,0-1.16-.61c-.22,0-1.22,1.14-3,3.4,0,.23.41.55,1.23,1A4.66,4.66,0,0,0,245.38,64.81Z"/><path class="cls-2" d="M326.61,50.66a40.33,40.33,0,0,0-1.09,4.51q-.93,10.61-1.47,16l.09,0a13.39,13.39,0,0,0,1.38-2.9,21.11,21.11,0,0,0,1.28-4.94l.75-7.83c.47-4.8.71-8,.71-9.77l-.24.11Q327.51,47.37,326.61,50.66Z"/><path class="cls-4" d="M426.2,58.87a6.38,6.38,0,0,0,2.38.94q1.62,0,3.3-2.73.27-.4,2.1-4.14c0-.55-.75-1.28-2.27-2.21a7.8,7.8,0,0,0-3.2-1.38q-.87,0-3,3.44c-1.4,2.28-2.1,3.8-2.1,4.54.08.23.14.43.19.6A6.07,6.07,0,0,1,426.2,58.87Z"/><path class="cls-4" d="M493,27.51q-2.55-2.36-4-2.36c-.85,0-2.2,1.69-4,5.06s-2.67,5.45-2.67,6.59q0,5.14,4.33,5.14a12.93,12.93,0,0,0,2.31-.3,13.13,13.13,0,0,1,2.32-.3c.52,0,.79.21.79.63q0,3.26-7.53,9.56-2.64,2.2-7.53,5.73a28.29,28.29,0,0,0-4,3.11.91.91,0,0,0,.82.41c1,0,3.21-.64,6.63-1.91q5.71-2.15,8-4.08a19.37,19.37,0,0,0,3.5-3.68,31.88,31.88,0,0,0,3.28-8.65,28,28,0,0,0,.85-7.12A10.21,10.21,0,0,0,493,27.51Z"/><path class="cls-4" d="M480,35.72a14.74,14.74,0,0,0,1.43-4.95c0-2.59-1.35-3.89-4-3.89-2,0-4.2,1-6.72,3.13q-1.69,1.43-5.47,5.45c.48-1.1,1-4.34,1.58-9.74l1-10.11a14.86,14.86,0,0,1,.67-2.36,9.67,9.67,0,0,0,.61-2,.87.87,0,0,0-.83-.9,4.85,4.85,0,0,0-1.39,2c-.57,1.23-1.14,2.46-1.69,3.71a20.08,20.08,0,0,0-2,5.32q-.72,9.66-1,14.5-.9,8-3.6,8h-4.1c-.65,0-1.63-.06-2.93-.17s-2.28-.17-2.94-.17-1.27,1.08-1.46,3.23a59.68,59.68,0,0,1-1.77,11,30.42,30.42,0,0,1-6.82,12.18q-5.42,5.75-12.3,5.74a16.18,16.18,0,0,1-9.34-2.55,9.34,9.34,0,0,1-4.29-8.24,22.47,22.47,0,0,1,.91-6.89L416,51.71a15.34,15.34,0,0,0,.68-2q0-1.08-.72-1.08c-.66,0-1.5.92-2.53,2.77A40.79,40.79,0,0,0,408,71.5a12.71,12.71,0,0,0,4,9.55,13.49,13.49,0,0,0,9.72,3.81q11.22,0,19.88-12.09A48.83,48.83,0,0,0,450.5,50.2,5.34,5.34,0,0,0,454.91,52H457v0c5.68-.11,10.35-1.4,14-4S477.63,41.34,480,35.72Zm-17.19,6.36q7.53-8.46,9.82-8.46c1.88,0,2.82.66,2.82,2q0,1.39-3.69,3.91a14,14,0,0,1-7.93,2.79A3.62,3.62,0,0,1,462.82,42.08Z"/><path class="cls-2" d="M381.87,54.08q1.83,0,3.3-3.78a14.06,14.06,0,0,0-.82-1.76,2.52,2.52,0,0,1,.73-1.31,2.68,2.68,0,0,0,.73-1.23q0-.45-.6-.45c-.42,0-1,.62-1.83,1.85a6.13,6.13,0,0,0-1.2,2.59c.32.66.56,1.19.71,1.57a1.83,1.83,0,0,1-.83,1.36c-.55.46-.82.74-.82.82S381.45,54.08,381.87,54.08Z"/><path class="cls-2" d="M374.1,57.24q-.5,0-2.82,4.53c1.08,1.45,1.64,2.21,1.67,2.28a4.93,4.93,0,0,1,.9,2.61c0,1.27-1.13,2.61-3.37,4l-5.12,2.72c.11.31.4.47.88.47a24.31,24.31,0,0,0,3.25-.83,13.72,13.72,0,0,0,3.28-1.23c1.18-1,2.35-3,3.49-6.2a10.22,10.22,0,0,0,.66-2.23A8.24,8.24,0,0,0,375,58.14Q374.28,57.24,374.1,57.24Z"/><path class="cls-2" d="M400.28,51.28a20.15,20.15,0,0,0-1,5.9,20.08,20.08,0,0,1-.69,6.18A4.49,4.49,0,0,1,394,66.68h-1.15q-3.11,0-3.11-4.71c0-.27,0-.61,0-1s0-.78,0-.92a32.83,32.83,0,0,1,.52-5q.72-4.24.84-5.28l-.25-.3a21.12,21.12,0,0,0-3,10.42q0,9-2.59,12a6.63,6.63,0,0,1-1.93,1.59,17.82,17.82,0,0,1-1.89.77c.4-1.38.8-2.76,1.2-4.12a22.34,22.34,0,0,0,.66-5.55A39.67,39.67,0,0,1,384.48,55a.78.78,0,0,1-.08-.29l-.1-.11a22.34,22.34,0,0,0-2.77,6,22.77,22.77,0,0,0-.42,5.55,29.86,29.86,0,0,1-1.06,8.45l-1.09.27c-.47.12-.71.25-.71.4s.36.43,1.09.7a6,6,0,0,0,2,.39A6.18,6.18,0,0,0,387,73.29a16.9,16.9,0,0,0,1.66-3.68,7.31,7.31,0,0,0,4.1,1H394c1.35,0,2.71-1.13,4.1-3.37a23.4,23.4,0,0,0,3.06-10.13c.21-2.5.38-4.38.49-5.62a20.88,20.88,0,0,1,.65-3.75l-.22-.18A9.89,9.89,0,0,0,400.28,51.28Z"/><path class="cls-2" d="M341.86,64.81c.4,0,.9-.39,1.5-1.18s1-1.17,1.12-1.17a14,14,0,0,1,2,1q.69,0,1.89-1.41a4.13,4.13,0,0,0,1.19-2.12c0-.35-.76-.88-2.28-1.6-.21,0-.71.47-1.48,1.39s-1.22,1.39-1.36,1.39a4,4,0,0,1-1.28-.61,5,5,0,0,0-1.16-.61c-.21,0-1.22,1.14-3,3.4,0,.23.41.55,1.24,1A4.6,4.6,0,0,0,341.86,64.81Z"/><path class="cls-2" d="M366.11,62.58a5,5,0,0,0-1.5-3.79,3.44,3.44,0,0,0-1.92-1.14c-.42,0-1.07.82-1.95,2.45a8.9,8.9,0,0,0-1.3,3.19c0,1.65.7,2.48,2.1,2.48a7,7,0,0,0,1.12-.14,6.06,6.06,0,0,1,1.12-.15c.25,0,.38.1.38.31q0,1.58-3.64,4.62c-.66.56-1.55,1.24-2.66,2a.94.94,0,0,0,.06-.27c0-.25-.68-.73-2-1.44-.18,0-.62.42-1.31,1.25s-1.12,1.24-1.29,1.24a9.47,9.47,0,0,1-2.18-1.09c-.19,0-.64.44-1.35,1.33l-1.33,1.73q0,.35,1.11.87a4,4,0,0,0,1.47.51c.33,0,.78-.35,1.36-1a4.83,4.83,0,0,1,1-1.05,11.94,11.94,0,0,1,1.79.89,1.92,1.92,0,0,0,1.12-.66,23,23,0,0,0,2.28-.76,13.66,13.66,0,0,0,3.86-2,9.64,9.64,0,0,0,1.7-1.78A15.28,15.28,0,0,0,365.69,66,13.29,13.29,0,0,0,366.11,62.58Z"/><path class="cls-2" d="M350.21,70.65v-.19A6.83,6.83,0,0,0,352.05,69a12.3,12.3,0,0,0,2.85-5,53.73,53.73,0,0,0,1.58-5.62,1,1,0,0,0-.15-.54,16.31,16.31,0,0,0-1.94,2.63,8.78,8.78,0,0,0-1.32,2.9c-.2,1.37-.33,2.17-.36,2.39a3.12,3.12,0,0,1-2.59,1h-.54A7.59,7.59,0,0,1,347,65.5q-3.42,0-6.55,6.56a5.28,5.28,0,0,0-.51,1.65q0,.27.24.27c.23,0,.45-.19.65-.56l.48-.91q1.78-2.81,3.4-2.81a4.16,4.16,0,0,1,1.77.37,8.46,8.46,0,0,0,1.31.47,12.12,12.12,0,0,0,1.78.11Z"/></g></svg>